<svg xmlns="http://www.w3.org/2000/svg" viewBox="0 0 31 31"><path d="M1 1h7v7h-7zM9 1h2v1h1v-1h1v2h1v1h-2v-1h-2v-1h-1zM23 1h7v7h-7zM2 2v5h5v-5zM14 2h1v1h-1zM16 2h1v1h1v2h-1v1h-1v3h1v-2h1v2h3v1h-2v1h-1v-1h-2v1h-1v-5h-1v-1h2v-1h-1v-1h1zM19 2h1v1h-1zM21 2h1v1h-1zM24 2v5h5v-5zM3 3h3v3h-3zM9 3h1v1h2v1h1v1h-1v2h-1v-3h-2zM20 3h1v1h1v1h-1v1h-2v-1h1zM25 3h3v3h-3zM9 6h1v2h1v1h2v1h1v1h1v1h-1v2h-1v2h-1v-1h-2v-1h1v-1h1v-2h-1v-1h-4v1h-1v-2h3zM18 6h1v1h-1zM13 7h1v2h-1zM19 7h1v1h-1zM21 7h1v1h-1zM2 9h1v1h1v1h1v1h-1v2h-1v1h-1v3h-1v-4h1v-2h1v-1h-1v1h-1v-2h1zM4 9h1v1h-1zM22 9h3v1h1v-1h2v1h1v-1h1v3h-1v-1h-6v1h1v1h1v-1h1v1h1v1h-1v3h-1v-3h-1v1h-2v2h1v1h-2v-1h-1v-1h-1v1h-4v-1h1v-3h1v1h1v1h-1v1h1v-1h2v-1h-1v-1h2v1h2v-1h-2v-1h1zM7 11h1v1h-1zM9 11h2v2h-1v1h-3v-1h1v-1h1zM17 11h1v1h1v1h-2zM19 11h2v1h-2zM6 12h1v1h-1zM27 12h1v1h-1zM5 13h1v1h1v1h-1v2h-2v1h-1v-2h2zM29 13h1v1h-1zM27 14h2v1h1v6h-2v-1h1v-3h-1v-1h-1zM7 15h3v1h2v1h-1v1h-1v-1h-2v-1h-1zM13 16h1v1h1v1h-1v1h1v1h-1v1h-3v-3h1v-1h1zM23 16h1v1h-1zM7 17h1v1h-1zM19 17h1v1h-1zM24 17h1v1h-1zM26 17h1v2h-1v1h1v1h1v1h-2v6h1v-5h1v-1h2v1h-1v1h-1v2h2v3h-2v1h-1v-1h-1v1h-4v-1h-1v1h-1v-1h-1v1h-2v-1h1v-2h2v1h1v-1h-1v-1h1v-5h1v-1h-1v-1h4v-1h1zM4 18h1v1h-1zM8 18h1v1h-1zM16 18h2v1h2v1h1v1h-2v1h-1v1h1v2h-1v-1h-1v-2h-2v1h-2v-1h1v-1h4v-1h-2zM20 18h1v1h-1zM1 19h1v1h-1zM3 19h1v3h-1zM7 19h1v1h-1zM5 20h2v1h1v-1h1v2h-4zM1 21h1v1h-1zM10 21h1v1h1v1h-2v1h1v1h-2v-3h1zM22 22v3h3v-3zM1 23h7v7h-7zM23 23h1v1h-1zM2 24v5h5v-5zM12 24h2v3h-1v1h1v-1h2v1h1v1h-5v1h-2v-1h1v-4h1v1h1v-1h-1zM29 24h1v1h-1zM3 25h3v3h-3zM16 25h1v1h1v1h-2zM9 26h1v1h-1zM22 26v2h1v1h1v-1h-1v-2zM24 26v1h1v-1zM28 27v1h1v-1zM9 28h1v1h-1z"/></svg>